<?xml version="1.0" encoding="UTF-8" standalone="no"?>
<!DOCTYPE svg PUBLIC "-//W3C//DTD SVG 1.1//EN" "http://www.w3.org/Graphics/SVG/1.1/DTD/svg11.dtd">
<svg width="100%" height="100%" viewBox="0 0 1042 1042" version="1.1" xmlns="http://www.w3.org/2000/svg" xmlns:xlink="http://www.w3.org/1999/xlink" xml:space="preserve" xmlns:serif="http://www.serif.com/" style="fill-rule:evenodd;clip-rule:evenodd;stroke-linejoin:round;stroke-miterlimit:1.41421;">
    <g transform="matrix(4.16667,0,0,4.16667,0,0)">
        <path d="M114.356,61.667C113.962,65.544 112.835,69.295 111.024,72.741L140.403,102.739C144.605,100.714 149.178,99.588 153.864,99.426L166.098,59.114C162.973,56.797 160.313,53.902 158.27,50.592L114.356,61.667ZM109.459,41.725L154.003,30.491C156.002,15.515 168.839,4.026 184.275,4.026C201.14,4.026 214.819,17.706 214.819,34.57C214.819,51.015 201.811,64.431 185.528,65.088L173.458,104.856C182.975,111.04 188.841,121.654 188.841,133.196C188.841,142.884 184.715,151.985 177.605,158.356L190.82,184.734C192.236,184.533 193.668,184.434 195.101,184.434C211.966,184.434 225.645,198.113 225.645,214.978C225.645,231.841 211.966,245.521 195.101,245.521C178.236,245.521 164.557,231.841 164.557,214.978C164.557,207.166 167.522,199.749 172.79,194.119L159.076,166.747C157.741,166.906 156.396,166.987 155.05,166.987C148.209,166.987 141.606,164.936 136.017,161.115L120.49,174.79C120.595,175.593 120.647,176.403 120.647,177.217C120.647,187.506 112.302,195.853 102.012,195.853C91.722,195.853 83.376,187.506 83.376,177.217C83.376,166.926 91.722,158.579 102.012,158.579C103.788,158.579 105.546,158.831 107.239,159.324L123.414,145.081C122.591,142.891 122,140.621 121.648,138.307L83.089,133.113C77.813,142.918 67.527,149.184 56.188,149.184C39.323,149.184 25.645,135.504 25.645,118.641C25.645,101.777 39.323,88.099 56.188,88.099C71.026,88.099 83.555,98.741 86.211,113.009L124.763,118.203C125.019,117.686 125.29,117.175 125.573,116.67L96.115,86.588C92.292,88.247 88.169,89.102 83.97,89.102C67.106,89.102 53.427,75.423 53.427,58.559C53.427,41.695 67.106,28.016 83.97,28.016C94.321,28.015 103.851,33.236 109.459,41.725Z" style="fill:white;"/>
    </g>
</svg>
